<?xml version="1.0" standalone="no"?><!DOCTYPE svg PUBLIC "-//W3C//DTD SVG 1.1//EN" "http://www.w3.org/Graphics/SVG/1.1/DTD/svg11.dtd"><svg t="1646478438856" class="icon" viewBox="0 0 1024 1024" version="1.1" xmlns="http://www.w3.org/2000/svg" p-id="2705" xmlns:xlink="http://www.w3.org/1999/xlink" width="200" height="200"><defs><style type="text/css"></style></defs><path d="M170.666667 128a42.666667 42.666667 0 0 0-42.666667 42.666667v85.333333a42.666667 42.666667 0 0 0 42.666667 42.666667h682.666666a42.666667 42.666667 0 0 0 42.666667-42.666667V170.666667a42.666667 42.666667 0 0 0-42.666667-42.666667H170.666667z m0 298.666667a42.666667 42.666667 0 0 0-42.666667 42.666666v85.333334a42.666667 42.666667 0 0 0 42.666667 42.666666h682.666666a42.666667 42.666667 0 0 0 42.666667-42.666666v-85.333334a42.666667 42.666667 0 0 0-42.666667-42.666666H170.666667z m554.666666 256v42.666666h-42.666666v85.333334h42.666666v85.333333h-42.666666v85.333333h42.666666v42.666667h85.333334v-42.666667h85.333333v42.666667h85.333333v-42.666667h42.666667v-85.333333h-42.666667v-85.333333h42.666667v-85.333334h-42.666667v-42.666666h-85.333333v42.666666h-85.333333v-42.666666h-85.333334zM170.666667 725.333333a42.666667 42.666667 0 0 0-42.666667 42.666667v85.333333a42.666667 42.666667 0 0 0 42.666667 42.666667h426.666666v-170.666667H170.666667z m640 85.333334h85.333333v85.333333h-85.333333v-85.333333z" p-id="2706"></path></svg>